<svg width="52" height="47" viewBox="0 0 52 47" fill="none" xmlns="http://www.w3.org/2000/svg">
<path d="M19.2654 12.9741L19.3541 12.956L19.4424 12.9465L19.5 12.945C19.5468 12.945 19.5929 12.9484 19.6379 12.9549L19.6933 12.9645L19.8145 12.998L19.9281 13.0462L20.0272 13.1038L20.0963 13.1544L20.1737 13.2239L23.7316 16.7818C24.104 17.1542 24.1036 17.7572 23.7316 18.1292C23.3596 18.5013 22.7566 18.5016 22.3842 18.1292L20.4531 16.1984L20.4526 21.1024C20.4526 21.6287 20.0263 22.055 19.5 22.055C18.9737 22.055 18.5474 21.6287 18.5474 21.1024L18.5469 16.1984L16.6154 18.1296C16.2434 18.5016 15.6404 18.5019 15.2681 18.1296C14.8957 17.7572 14.896 17.1542 15.2681 16.7822L18.8263 13.2239C18.8591 13.1912 18.8937 13.1613 18.9297 13.1343L19.0006 13.086L19.0588 13.053L19.1568 13.0086L19.2654 12.9741Z" fill="#434343"/>
<path d="M39.026 33.2654L39.0441 33.3541L39.0535 33.4424L39.055 33.5C39.055 33.5468 39.0517 33.5929 39.0452 33.6379L39.0355 33.6933L39.002 33.8145L38.9539 33.9281L38.8962 34.0272L38.8456 34.0963L38.7761 34.1737L35.2182 37.7316C34.8458 38.104 34.2428 38.1036 33.8708 37.7316C33.4988 37.3596 33.4984 36.7566 33.8708 36.3842L35.8016 34.4531L30.8977 34.4526C30.3714 34.4526 29.945 34.0263 29.945 33.5C29.945 32.9737 30.3714 32.5474 30.8977 32.5474L35.8016 32.5469L33.8705 30.6154C33.4984 30.2434 33.4981 29.6404 33.8705 29.2681C34.2428 28.8957 34.8458 28.896 35.2179 29.2681L38.7761 32.8263C38.8089 32.8591 38.8388 32.8937 38.8658 32.9297L38.914 33.0006L38.947 33.0588L38.9915 33.1568L39.026 33.2654Z" fill="#434343"/>
<path d="M33.5344 18.1338L33.6099 18.1837L33.679 18.2395L33.7209 18.2791C33.754 18.3122 33.7842 18.3472 33.8114 18.3836L33.8438 18.4296L33.9058 18.539L33.9521 18.6534L33.9813 18.7642L33.9944 18.8489L34 18.9527V23.9844C34 24.511 33.5734 24.9371 33.0473 24.9371C32.5211 24.9371 32.0945 24.511 32.0945 23.9844L32.0943 21.2536L28.6264 24.7209C28.2542 25.093 27.6513 25.093 27.2791 24.7209C26.907 24.3487 26.907 23.7458 27.2791 23.3736L30.7464 19.9057L28.0151 19.9055C27.489 19.9055 27.0624 19.4794 27.0624 18.9527C27.0624 18.4261 27.489 18 28.0151 18H33.0473C33.0936 18 33.1392 18.0033 33.1838 18.0097L33.268 18.0257L33.3325 18.0435L33.4332 18.0814L33.5344 18.1338Z" fill="#434343"/>
<rect x="1.5" y="28.5" width="22" height="17" rx="1.5" stroke="#434343" stroke-width="3"/>
<mask id="path-5-inside-1" fill="white">
<rect x="42" width="10" height="10" rx="1"/>
</mask>
<rect x="42" width="10" height="10" rx="1" fill="#35D696" stroke="#434343" stroke-width="6" mask="url(#path-5-inside-1)"/>
<mask id="path-6-inside-2" fill="white">
<rect x="42" y="37" width="10" height="10" rx="1"/>
</mask>
<rect x="42" y="37" width="10" height="10" rx="1" stroke="#434343" stroke-width="6" mask="url(#path-6-inside-2)"/>
<mask id="path-7-inside-3" fill="white">
<rect x="5" width="10" height="10" rx="1"/>
</mask>
<rect x="5" width="10" height="10" rx="1" stroke="#434343" stroke-width="6" mask="url(#path-7-inside-3)"/>
<rect x="17" y="4" width="3" height="2" rx="1" fill="#434343"/>
<rect x="22" y="4" width="3" height="2" rx="1" fill="#434343"/>
<rect x="27" y="4" width="3" height="2" rx="1" fill="#434343"/>
<rect x="32" y="4" width="3" height="2" rx="1" fill="#434343"/>
<rect x="37" y="4" width="3" height="2" rx="1" fill="#434343"/>
<path fill-rule="evenodd" clip-rule="evenodd" d="M48 13V14C48 14.5523 47.5523 15 47 15C46.4477 15 46 14.5523 46 14V13C46 12.4477 46.4477 12 47 12C47.5523 12 48 12.4477 48 13Z" fill="#434343"/>
<path fill-rule="evenodd" clip-rule="evenodd" d="M48 18V19C48 19.5523 47.5523 20 47 20C46.4477 20 46 19.5523 46 19V18C46 17.4477 46.4477 17 47 17C47.5523 17 48 17.4477 48 18Z" fill="#434343"/>
<path fill-rule="evenodd" clip-rule="evenodd" d="M48 23V24C48 24.5523 47.5523 25 47 25C46.4477 25 46 24.5523 46 24V23C46 22.4477 46.4477 22 47 22C47.5523 22 48 22.4477 48 23Z" fill="#434343"/>
<path fill-rule="evenodd" clip-rule="evenodd" d="M48 28V29C48 29.5523 47.5523 30 47 30C46.4477 30 46 29.5523 46 29V28C46 27.4477 46.4477 27 47 27C47.5523 27 48 27.4477 48 28Z" fill="#434343"/>
<path fill-rule="evenodd" clip-rule="evenodd" d="M48 33V34C48 34.5523 47.5523 35 47 35C46.4477 35 46 34.5523 46 34V33C46 32.4477 46.4477 32 47 32C47.5523 32 48 32.4477 48 33Z" fill="#434343"/>
</svg>
