<svg width="56" height="44" viewBox="0 0 56 44" fill="none" xmlns="http://www.w3.org/2000/svg">
<path d="M51.4839 42.5H4.51613C2.90456 42.5 1.5 41.1228 1.5 39.3191V4.68085C1.5 2.87715 2.90456 1.5 4.51613 1.5H51.4839C53.0954 1.5 54.5 2.87715 54.5 4.68085V39.3191C54.5 41.1228 53.0954 42.5 51.4839 42.5Z" stroke="#434343" stroke-width="3"/>
<rect x="1" y="12" width="54" height="3" fill="#434343"/>
<path fill-rule="evenodd" clip-rule="evenodd" d="M8.5 10C9.88071 10 11 8.88071 11 7.5C11 6.11929 9.88071 5 8.5 5C7.11929 5 6 6.11929 6 7.5C6 8.88071 7.11929 10 8.5 10Z" fill="#FF7E6F"/>
<path fill-rule="evenodd" clip-rule="evenodd" d="M16.5 10C17.8807 10 19 8.88071 19 7.5C19 6.11929 17.8807 5 16.5 5C15.1193 5 14 6.11929 14 7.5C14 8.88071 15.1193 10 16.5 10Z" fill="#FFCE2C"/>
<path fill-rule="evenodd" clip-rule="evenodd" d="M24.5 10C25.8807 10 27 8.88071 27 7.5C27 6.11929 25.8807 5 24.5 5C23.1193 5 22 6.11929 22 7.5C22 8.88071 23.1193 10 24.5 10Z" fill="#35D696"/>
</svg>
